<svg xmlns="http://www.w3.org/2000/svg" width="3in" height="3in" viewBox="0 0 216 216">
  <defs>
    <style>
      .cls-1 {
        isolation: isolate;
      }

      .cls-2 {
        fill: #0071bc;
      }

      .cls-3, .cls-6 {
        fill: #29abe2;
      }

      .cls-3 {
        opacity: 0.8;
        mix-blend-mode: multiply;
      }

      .cls-4 {
        fill: #fff;
      }

      .cls-5 {
        fill: none;
      }
    </style>
  </defs>
  <title>joy-of-synths-logo</title>
  <g class="cls-1">
    <g id="heart_inside" data-name="heart inside">
      <path class="cls-2" d="M106.2,182.7l-31.83,4.55c-18.21,0-21.22,2.83-26.89-14.11l-5.85-21.25c0-.08-8.14-46.59-8.13-46.66l.92-15.47C35.93,85,41.25,67.17,41.25,66.9c.22-18,11.36-34.81,29.45-34.81l5.58-.75c10.18,1.89,20.27-2.28,39.71,57l36-8.16,25.14,8c8.18,5.57,17,22.91,11.59,40.59C182.79,148.35,145.9,175.12,106.2,182.7Z"/>
    </g>
    <g id="Heart-border">
      <g id="Favorites_-_Grey" data-name="Favorites - Grey">
        <path class="cls-3" d="M179.8,72q3.64,2.37,7.55,5.44c15.88,12.53,26.27,40.24,11.22,70.69l-5.8,9.62C173.88,184,131.93,204.25,43.69,206.64,7.06,123.37,6.28,75.4,20.75,46.29l5.8-9.62C46.35,9.29,74.93,6.83,92.77,16.13q4.38,2.3,8,4.65c19.47,12.61,23.85,26.9,27,46.28,18.2-5.53,32.51-7.71,52,4.9m-11.09,18.4c-11.19-7.24-17.87-6.91-33.6-2.13l-24.54,7.46-4.28-26.13c-2.76-16.76-5.41-23.13-16.59-30.38-1.84-1.19-3.9-2.38-6.14-3.55-8.23-4.3-25.22-4-38.67,14L40,57.7C27.76,83.36,33.59,125.78,57.36,184c60.86-3.35,100.2-16.52,117.07-39.2l4.85-8.05c9.75-20.44,2.53-36.39-4.79-42.17h0c-2-1.58-4-3-5.78-4.17Z"/>
      </g>
    </g>
    <g id="Synths_copy_2" data-name="Synths copy 2">
      <path class="cls-4" d="M57.23,102.71h1.52v12.66H57.14a12.4,12.4,0,0,0-3.8-8.2,11.73,11.73,0,0,0-8.18-2.94,10.64,10.64,0,0,0-7,2.21,7.26,7.26,0,0,0-2.67,5.89,9.79,9.79,0,0,0,2.21,6.22q2.21,2.81,9.57,7.23c11.59,6.91,6.85,2.88,11.52,8.93a14,14,0,0,1,3,8.75,15.42,15.42,0,0,1-15.36,15.39,29.43,29.43,0,0,1-9.38-2,13,13,0,0,0-3-.83q-1.34,0-2.07,2.07H30.29v-14.6H31.9a12.93,12.93,0,0,0,13,13.31,11.47,11.47,0,0,0,7.88-2.62,8.89,8.89,0,0,0,3-7,9.84,9.84,0,0,0-2.43-6.27q-2.45-3-10.19-7.72-6.32-3.9-8.43-6.16A15,15,0,0,1,31.57,122a16.83,16.83,0,0,1-1-5.92A13.27,13.27,0,0,1,34.64,106a14.74,14.74,0,0,1,10.61-3.88,24.67,24.67,0,0,1,7.83,1.43,10.79,10.79,0,0,0,2.77.65,1.1,1.1,0,0,0,.87-.28A3.86,3.86,0,0,0,57.23,102.71Z"/>
      <path class="cls-4" d="M71.36,125.75v1.31c-1.6.24-2.39,1.06-2.39,2.46a4.88,4.88,0,0,0,.42,1.84l6.75,15.88L81,132.4a10.21,10.21,0,0,0,.58-2.92c0-1.51-.94-2.31-2.82-2.42v-1.31h10v1.31A5,5,0,0,0,85,128.59a13.94,13.94,0,0,0-2.67,5.06L71.16,166.77A21.14,21.14,0,0,1,67,174.24Q64.47,177,61.84,177a6.84,6.84,0,0,1-3.5-1.2l1.83-4.85a6.74,6.74,0,0,0,2.72.66A5.85,5.85,0,0,0,67.08,170a13.84,13.84,0,0,0,3-5.31l3.61-10.19L63.58,131.28a8.67,8.67,0,0,0-2.23-3.36,6.14,6.14,0,0,0-3.47-.86v-1.31Z"/>
      <path class="cls-4" d="M95.61,124.89v5.62q4.92-5.61,10.15-5.62a9.1,9.1,0,0,1,6.78,2.78,10,10,0,0,1,2.71,7.31v12.68q0,2.91,1,3.84c.65.62,1.91.93,3.8.93v1.32H105v-1.32a7.15,7.15,0,0,0,3.82-.72,3.17,3.17,0,0,0,1-2.77v-14.7a6.34,6.34,0,0,0-1.76-4.7,6.16,6.16,0,0,0-4.51-1.74q-4,0-8,5.5V147c0,2.32.3,3.81.9,4.44s1.86,1,3.79,1v1.32H85.5v-1.32c2.14,0,3.46-.34,4-1s.74-2.14.74-4.37V131.18c0-1.68-.3-2.79-.89-3.32s-1.86-.8-3.8-.8v-1.31l8.75-.86Z"/>
      <path class="cls-4" d="M125.72,116.14h1.35v9.45h9.76v2h-9.76v18.09a6.47,6.47,0,0,0,1.32,4.36,4.69,4.69,0,0,0,3.76,1.53,6.91,6.91,0,0,0,5.23-2.71l.89,1q-3.69,4.7-8.48,4.69a7.8,7.8,0,0,1-5.85-2.29,8,8,0,0,1-2.25-5.88V127.64h-5.31v-1.35Q122.2,123.38,125.72,116.14Z"/>
      <path class="cls-4" d="M156.68,147.89V134a6.28,6.28,0,0,0-1.55-4.46,5.33,5.33,0,0,0-4.1-1.66,7.54,7.54,0,0,0-4.24,1.22,15.36,15.36,0,0,0-3.94,4.12v15.41a3.7,3.7,0,0,0,1,3,6.1,6.1,0,0,0,3.68.81v1.32H132.47v-1.32q3.22-.08,4.11-1.05c.59-.64.89-2.09.89-4.34V110.45c0-1.71-.3-2.84-.91-3.39s-2-.84-4.09-.84v-1.31l9.07-1h1.31v26.57a20.71,20.71,0,0,1,4.9-4.36,9.73,9.73,0,0,1,4.94-1.26,9.12,9.12,0,0,1,6.74,2.64,9.6,9.6,0,0,1,2.64,7.1V147c0,2.2.29,3.65.89,4.34s1.8,1.05,3.64,1.05v1.32H152v-1.32c1.91,0,3.16-.3,3.77-.89S156.68,149.73,156.68,147.89Z"/>
      <path class="cls-4" d="M182.91,124.89v8.64h-1.59a8.43,8.43,0,0,0-2.32-5.17,6.42,6.42,0,0,0-4.69-1.92,5.15,5.15,0,0,0-3.37,1,3.42,3.42,0,0,0-1.28,2.79,4.34,4.34,0,0,0,1.19,3A17.48,17.48,0,0,0,176,136.4q5.11,2.32,6.76,4.45a8.16,8.16,0,0,1,1.64,5.11,8.25,8.25,0,0,1-2.63,6.1,8.63,8.63,0,0,1-6.24,2.58,12.92,12.92,0,0,1-4.92-1.36,7.26,7.26,0,0,0-2.2-.73,1.61,1.61,0,0,0-1.24.54,2.2,2.2,0,0,0-.58,1.36h-1.36v-9.57h1.36a10.32,10.32,0,0,0,3.25,6,8.47,8.47,0,0,0,5.77,2.22,4.79,4.79,0,0,0,3.5-1.4,4.63,4.63,0,0,0,1.42-3.45,5,5,0,0,0-1.3-3.43q-1.31-1.45-5.64-3.36c-3.25-1.43-5.4-2.76-6.43-4a6.81,6.81,0,0,1-1.54-4.5,7.52,7.52,0,0,1,2.53-5.67,8.52,8.52,0,0,1,6-2.39,9.3,9.3,0,0,1,3.52.78,6.3,6.3,0,0,0,2.21.54,1.77,1.77,0,0,0,1.66-1.32Z"/>
    </g>
    <g id="JOy_copy" data-name="JOy copy">
      <path class="cls-4" d="M42,25.22A16.5,16.5,0,0,0,41,31.73V79.4q0,6.69-3.55,10.47a12.13,12.13,0,0,1-9.31,3.79A9.42,9.42,0,0,1,19.62,89l1.28-.88a5.55,5.55,0,0,0,4.66,2.33,7.33,7.33,0,0,0,6.19-3.35q2.39-3.35,2.39-9.37v-46c0-3.11.86-1.93,0-3.11s2.6-5.39,6-6.62l3.61-2-.79,2.6"/>
      <path class="cls-4" d="M80.86,60.78a16,16,0,0,1-5,12,17.23,17.23,0,0,1-12.48,4.82,17.23,17.23,0,0,1-12.48-4.82,16,16,0,0,1-5-12,16.15,16.15,0,0,1,5-12.12,17.2,17.2,0,0,1,12.5-4.82,17.21,17.21,0,0,1,12.5,4.82A16.18,16.18,0,0,1,80.86,60.78Zm-6.64,0q0-6.84-2.91-11a9.65,9.65,0,0,0-15.85-.09q-2.9,4.09-2.9,11.11t2.88,11a9.72,9.72,0,0,0,15.89,0Q74.21,67.6,74.22,60.81Z"/>
      <path class="cls-4" d="M91.1,41.81V43.3c-1.81.27-2.71,1.2-2.71,2.8a5.53,5.53,0,0,0,.48,2.09l7.67,18,5.56-16.88a11.62,11.62,0,0,0,.66-3.31c0-1.72-1.07-2.63-3.21-2.75V41.81h11.32V43.3A5.64,5.64,0,0,0,106.63,45a15.82,15.82,0,0,0-3,5.75L90.88,88.43a23.89,23.89,0,0,1-4.72,8.49Q83.3,100,80.29,100a7.85,7.85,0,0,1-4-1.36l2.08-5.51a7.65,7.65,0,0,0,3.1.75,6.59,6.59,0,0,0,4.75-1.8,15.81,15.81,0,0,0,3.38-6l4.1-11.58L82.26,48.1a9.8,9.8,0,0,0-2.53-3.82,6.88,6.88,0,0,0-4-1V41.81Z"/>
      <rect id="_Slice_" data-name="&lt;Slice&gt;" class="cls-5" x="15" y="19" width="23" height="6"/>
    </g>
    <g id="of">
      <path class="cls-4" d="M112.72,99.8a8.57,8.57,0,0,1-2.66,6.41,9.9,9.9,0,0,1-13.29,0,9.13,9.13,0,0,1,0-12.87,9.9,9.9,0,0,1,13.31,0A8.63,8.63,0,0,1,112.72,99.8Zm-3.54,0a10.11,10.11,0,0,0-1.55-5.87,5.14,5.14,0,0,0-8.44,0,10.09,10.09,0,0,0-1.54,5.92,10,10,0,0,0,1.53,5.84,5.18,5.18,0,0,0,8.46,0A9.94,9.94,0,0,0,109.18,99.81Z"/>
      <path class="cls-4" d="M125.08,92.53h-4.22V104.9a2.76,2.76,0,0,0,.57,1.94,2.55,2.55,0,0,0,1.89.6h.8v.79h-9.64v-.79h.75a2.63,2.63,0,0,0,1.83-.51,2.32,2.32,0,0,0,.54-1.75V92.53h-2.37v-.82a13.11,13.11,0,0,0,2.37-1.15V87.21a10.48,10.48,0,0,1,2-6.54,6.32,6.32,0,0,1,5.33-2.58,7.8,7.8,0,0,1,4.81,1.38l-1.65,4.29h-.82q0-.37,0-.72a4.45,4.45,0,0,0-.86-2.91,2.91,2.91,0,0,0-2.38-1,2.83,2.83,0,0,0-2.32,1.05,4.6,4.6,0,0,0-.84,2.93v8.21h4.22Z"/>
      <g>
        <path class="cls-6" d="M114.06,165h2l-.42,2.43h-2Z"/>
        <path class="cls-6" d="M122.69,163.93l2,.4a5.21,5.21,0,0,1-1.48,2.5,3.39,3.39,0,0,1-2.24.82,2.86,2.86,0,0,1-2.3-1,4.42,4.42,0,0,1-.88-3,7.54,7.54,0,0,1,.59-3,4.68,4.68,0,0,1,1.61-2,3.8,3.8,0,0,1,2.17-.69,2.89,2.89,0,0,1,2.13.82,3.44,3.44,0,0,1,.94,2.3l-2,.25c-.09-1-.5-1.52-1.23-1.52a1.49,1.49,0,0,0-1,.42,3.4,3.4,0,0,0-.85,1.47,7.19,7.19,0,0,0-.36,2.32,2,2,0,0,0,.34,1.28,1,1,0,0,0,.81.45,1.44,1.44,0,0,0,1-.43A2.88,2.88,0,0,0,122.69,163.93Z"/>
        <path class="cls-6" d="M125.85,163.57a7.1,7.1,0,0,1,1-3.91,3.76,3.76,0,0,1,3.34-1.76,3.28,3.28,0,0,1,2.6,1.11,4.48,4.48,0,0,1,1,3.08,6.37,6.37,0,0,1-1.21,3.94,3.74,3.74,0,0,1-3.16,1.62,3.31,3.31,0,0,1-2.58-1.09A4.32,4.32,0,0,1,125.85,163.57Zm5.89-1.8a2.25,2.25,0,0,0-.43-1.46,1.37,1.37,0,0,0-1.11-.52,1.77,1.77,0,0,0-1.06.38,3.24,3.24,0,0,0-.86,1.35,5.62,5.62,0,0,0-.37,2,2.54,2.54,0,0,0,.46,1.62,1.35,1.35,0,0,0,1.12.58,1.69,1.69,0,0,0,1.43-.9A5.33,5.33,0,0,0,131.74,161.77Z"/>
        <path class="cls-6" d="M135.81,158.11h2l-.21,1.13A3.3,3.3,0,0,1,140,157.9a1.79,1.79,0,0,1,2,1.64,3.23,3.23,0,0,1,1.17-1.18,2.86,2.86,0,0,1,1.52-.46,1.83,1.83,0,0,1,1.44.58,2.23,2.23,0,0,1,.53,1.6,10.61,10.61,0,0,1-.2,1.66l-1,5.7h-2.07l1-5.7c.13-.72.19-1.12.19-1.21a.85.85,0,0,0-.21-.62.7.7,0,0,0-.56-.22,1.69,1.69,0,0,0-1.37.93,7.23,7.23,0,0,0-.8,2.57l-.72,4.25h-2.08l1-5.64a8.67,8.67,0,0,0,.17-1.26.84.84,0,0,0-.22-.62.74.74,0,0,0-.56-.23,1.47,1.47,0,0,0-.95.43,2.9,2.9,0,0,0-.77,1.24,13.19,13.19,0,0,0-.4,1.79l-.75,4.29h-2.06Z"/>
      </g>
    </g>
  </g>
</svg>
